/* XPM */
static char *kfourinline[] = {
/* columns rows colors chars-per-pixel */
"32 32 256 2 ",
"   c #00003D",
".  c #000041",
"X  c #00014E",
"o  c #000450",
"O  c #7A607C",
"+  c #B8553C",
"@  c #D94F15",
"#  c #D3511C",
"$  c #F74F00",
"%  c #FA4F00",
"&  c #FC5100",
"*  c #E95B1D",
"=  c #E25218",
"-  c #F05A18",
";  c #FF751C",
":  c #E85E22",
">  c #F06C24",
",  c #EC7C3E",
"<  c #9A5759",
"1  c #8C5364",
"2  c #8F6365",
"3  c #9E6161",
"4  c #AC767D",
"5  c #CE6B40",
"6  c #D46540",
"7  c #CE7F5B",
"8  c #D3765B",
"9  c #EF7B4B",
"0  c #E37C55",
"q  c #FF8134",
"w  c #FF9355",
"e  c #FE9158",
"r  c #DC8C72",
"t  c #DF9A7D",
"y  c #EA8C69",
"u  c #EE936C",
"i  c #F3996F",
"p  c #F5986C",
"a  c #EC9C7E",
"s  c #F09B7C",
"d  c #FAA773",
"f  c #000585",
"g  c #000987",
"h  c #000C89",
"j  c #01108D",
"k  c #000791",
"l  c #000DAF",
"z  c #000FB0",
"x  c #0013B3",
"c  c #0F29B6",
"v  c #1026B4",
"b  c #1E3DBF",
"n  c #233DBE",
"m  c #283EBD",
"M  c #2950AF",
"N  c #3D54A2",
"B  c #2440BF",
"V  c #3962AF",
"C  c #2C62BE",
"Z  c #3A6AB7",
"A  c #4E4D8D",
"S  c #5A5694",
"D  c #586198",
"F  c #616090",
"G  c #6B749C",
"H  c #4264A8",
"J  c #6072A4",
"K  c #687EBF",
"L  c #717EB5",
"P  c #0A3AC2",
"I  c #1D3FC1",
"U  c #0442C5",
"Y  c #0A44C4",
"T  c #0D4AC6",
"R  c #064CC9",
"E  c #0C4DCA",
"W  c #0644C9",
"Q  c #1C43C3",
"!  c #1E4AC7",
"~  c #1A42CB",
"^  c #1D4DCA",
"/  c #0652CE",
"(  c #0D53CD",
")  c #0F59CF",
"_  c #1154CD",
"`  c #1B52CC",
"'  c #1B5BCD",
"]  c #0D55D2",
"[  c #0D5BD2",
"{  c #0359D8",
"}  c #1856D0",
"|  c #115CD3",
" . c #185FD1",
".. c #1757D1",
"X. c #2244C2",
"o. c #2555CF",
"O. c #2956CE",
"+. c #285BC8",
"@. c #2657D0",
"#. c #2A5AD1",
"$. c #0C63D7",
"%. c #0363D9",
"&. c #0B65DA",
"*. c #0D6CDD",
"=. c #1263D5",
"-. c #146BD7",
";. c #1264DA",
":. c #126BDB",
">. c #1D6CD5",
",. c #1470DD",
"<. c #1974DD",
"1. c #1E77D6",
"2. c #2968C0",
"3. c #2060CC",
"4. c #3764CD",
"5. c #3F71CC",
"6. c #2465D1",
"7. c #2B64D4",
"8. c #2561DA",
"9. c #2C6DD5",
"0. c #336DD3",
"q. c #386DD3",
"w. c #2779DA",
"e. c #3C73D5",
"r. c #3A78D7",
"t. c #0066E3",
"y. c #066CE5",
"u. c #136FE1",
"i. c #0C72E2",
"p. c #077EEF",
"a. c #0D7AE7",
"s. c #1375E1",
"d. c #147BE4",
"f. c #267EE6",
"g. c #5667C7",
"h. c #5D6ECB",
"j. c #566CCA",
"k. c #5D71CC",
"l. c #4476D5",
"z. c #4C74D3",
"x. c #447AD6",
"c. c #4C7AD6",
"v. c #4E7EDA",
"b. c #527DD6",
"n. c #587FD5",
"m. c #457EE1",
"M. c #836786",
"N. c #8E7188",
"B. c #B57E81",
"V. c #6D83AB",
"C. c #3F8BD7",
"Z. c #1580E8",
"A. c #2483E5",
"S. c #258BEB",
"D. c #2A8CEA",
"F. c #2C89E7",
"G. c #348CE7",
"H. c #2D91EC",
"J. c #238DF1",
"K. c #4887DA",
"L. c #5A81D7",
"P. c #5582D9",
"I. c #5C85DA",
"U. c #518FDA",
"Y. c #4891DF",
"T. c #7986C0",
"R. c #6284D6",
"E. c #6088D0",
"W. c #6A89D7",
"Q. c #6286D9",
"!. c #6589DA",
"~. c #6A8BD9",
"^. c #718ED9",
"/. c #6899D9",
"(. c #7296D3",
"). c #7591DC",
"_. c #7A93DB",
"`. c #7FA8DB",
"'. c #4B81E0",
"]. c #4697ED",
"[. c #5099E3",
"{. c #5DA3E6",
"}. c #5BAEF4",
"|. c #57B1F7",
" X c #5EB2F6",
".X c #5AB3FA",
"XX c #56B4FE",
"oX c #7FAAE1",
"OX c #70B2E9",
"+X c #60B4F6",
"@X c #68BBF9",
"#X c #73BBF6",
"$X c #78C1F8",
"%X c #AE8B99",
"&X c #9B94BD",
"*X c #BE9DAA",
"=X c #B3A1BA",
"-X c #D29081",
";X c #C49796",
":X c #EC9E82",
">X c #E8A48D",
",X c #EFAF96",
"<X c #EFB096",
"1X c #F3B197",
"2X c #CCAFB8",
"3X c #D3B4B9",
"4X c #EEB7A4",
"5X c #F6C3AF",
"6X c #F6CBBA",
"7X c #838BC3",
"8X c #8495D6",
"9X c #8197DB",
"0X c #869ADD",
"qX c #8D9EDD",
"wX c #A099C1",
"eX c #95B3CC",
"rX c #8EA0DE",
"tX c #80AEDF",
"yX c #8EACD9",
"uX c #95A4DE",
"iX c #98A4DF",
"pX c #8EB3D8",
"aX c #97B7DD",
"sX c #A3BCDE",
"dX c #829AE0",
"fX c #96A5E0",
"gX c #98A7E1",
"hX c #99BFE8",
"jX c #A5AFE3",
"kX c #A7B3E4",
"lX c #A9B3E4",
"zX c #BBCBDD",
"xX c #B5C7DE",
"cX c #A8C7E4",
"vX c #B2C8E4",
"bX c #BDCEE4",
"nX c #BFD4EB",
"mX c #DEDEDF",
"MX c #E0DFDE",
"NX c #E3E1DF",
"BX c #ECE6DF",
"VX c #C5D3E4",
"CX c #CEDDEB",
"ZX c #DCDEE1",
"AX c #E5E4E4",
"SX c #EAE6E1",
"DX c #ECE9E5",
"FX c #E5E9EC",
"GX c #EBEBEB",
"HX c #F3ECE4",
"JX c #F0EEEA",
"KX c #F5F2EC",
"LX c #FCF6ED",
"PX c #FAF7F3",
"IX c #FEFAF3",
"UX c None",
/* pixels */
"UXUXo o o X X X o X X X X o o o o o o o o o o X X X o X X o UXUX",
"UXk z l l l l l l l l x x x x x x x x x x x x x x x x x x x k UX",
"UXf v g.h.h.h.h.h.h.h.k.h.k.h.k.k.k.n.k.k.k.k.k.k.k.k.k.j.c f UX",
"UXf m jXlXjXlXlXkXkXkXlXkXkXkXkXkXlXlXlXsXkXkXkXjXlXkXlXjXn f UX",
"UXf m uXiXiXiXiXfXuXfXfXfXfXfXfXfXfXgXgXfXfXgXgXfXfXfXfXuXn f UX",
"UXf n qXqXqXqXqXqXqXqXqXqXqXqXrXrXrXrXrXrXrXrXrXrXrXrXuX0XI f UX",
"UXf B 0X0X0X9X0X0X0X0X0X0X0X0X8X8XdX0X0X0X0X0X0X0X0X0XqX0XI f UX",
"UXf X._._.8X_.8X8X9X_.0X_.8X=X3X2XwX_.0X_.0X_.0X_.0X_.0X_.Q f UX",
"UXf X.).)._.^._.^._._.^.^.*X5X6X6X4X&X)._._._._._._._._.).Q f UX",
"UXf X.^.^.^.^.^.^.^.^.^.7X>X1X,X1X1X;X^.~.^.^.^.^.^.).).z.P f UX",
"UXf ! R.W.W.W.W.!.W.W.!.7Xu p p i p -X~.~.~.~.~.~.^.!.4.Y P h UX",
"UXf ! R.R.L.R.I.R.R.R.R.R.r w w e w %XU.!.!.!.!.!.c.` Y Y P j UX",
"UXh ^ n.n.n.L.L.n.n.L.P.P.T.t d d ;XL.I.I.I.I.l.#.T Y T E Y j UX",
"UXj ` c.b.b.b.b.b.b.b.L.P.'.b.T.K m.v.c.5.7._ U U R E E E E j UX",
"UXj ` z.c.c.c.c.v.c.l.q.9.+.M.4 4 S ( _ E R 5.(.E.' R _ _ E j UX",
"UXj } l.l.l.z.l.0.@.] ( R 1 y :Xa 0 A { / (.KXIXIXxX3.( ] ( j UX",
"UXj ..e.e.e.q. .( ( ( [ M 6 0 0 0 9 < / 6.mXKXGXJXLX(./ ) ( j UX",
"UXj ..e.q.6.) ( ( ) | { N = : : : - + / K.AXAXAXAXDXaX[ [ ] j UX",
"UXh ..9. .[ [ ) | | | | 3.@ % $ % & < { x.MXAXmXMXDXyX[ =.] j UX",
"UXh |  .[ =.=.| =.=.=.| %.F > ; ; 5 2.&.=.sXHXDXHXZXr.$.=.| h UX",
"UXh | =.=.=.=.=.=.$.=.-.=.*.Z G J >.*.;.;.>.oXvXhXK.$.-.:.| h UX",
"UXh | =.=.;.$.=.=.$.$.-.:.:.y.t.t.y.:.:.:.*.%.:.&.%.:.:.:.;.h UX",
"UXh ;.:.:.;./.bXVXtX<.:.,.:.D N.M.V i.,.*.w.aXVXvXU.*.,.,.;.f UX",
"UXh ;.:.$./.HXPXPXIXpX*.*.O y :Xs 8 H a.<.xXIXPXIXDXK.i.s.;.j UX",
"UXh :.:.,.zXJXAXAXGXZXA.2.6 0 0 0 9 3 i.Y.SXDXAXAXHXaXi.d.:.h UX",
"UXh ,.s.<.bXAXNXMXMXmXA.V = * * * - + i.[.NXZXmXNXSXaXd.Z.,.j UX",
"UXf i.s.i.tXBXAXAXBXcXa.1.# & % % & 2 p.A.VXSXAXAXAX{.a.d.,.f UX",
"UXj f.F.A.G.cXDXFXVX].S.J.V., q q 7 C.J.S.{.CXGXFXhXD.D.H.f.j UX",
"UXj ].+X X}.}.#X#X X}. X XXXOXeXpX X.X+X+X|.+X$X@X|. X+X@X].j UX",
"UXk I #.O.O.o.o.o.#.O.#.#.#.8.8.8.7.7.#.#.#.O.@.@.#.#.#.#.~ f UX",
"UXUX.                         . .                         . UXUX",
"UXUXUXUXUXUXUXUXUXUXUXUXUXUXUXUXUXUXUXUXUXUXUXUXUXUXUXUXUXUXUXUX"
};
